<?xml version="1.0" standalone="no"?>
<!DOCTYPE svg PUBLIC "-//W3C//DTD SVG 1.1//EN" "http://www.w3.org/Graphics/SVG/1.1/DTD/svg11.dtd" >
<svg xmlns="http://www.w3.org/2000/svg" xmlns:xlink="http://www.w3.org/1999/xlink" version="1.1">
<metadata>
Created by FontForge 20190801 at Sun Jan 23 21:34:55 2022
 By Unknown
(c) 2021 Robin Campistron
</metadata>
<defs>
<font id="LozangeNoCommercialRegular" horiz-adv-x="0" >
  <font-face 
    font-family="LozangeNoCommercial"
    font-weight="400"
    font-stretch="normal"
    units-per-em="1000"
    panose-1="0 0 0 0 0 0 0 0 0 0"
    ascent="800"
    descent="-200"
    cap-height="694"
    bbox="-17 -162 1042 856"
    underline-thickness="0"
    underline-position="0"
    unicode-range="U+000A-00AD"
  />
<missing-glyph horiz-adv-x="527" 
d="M50 700h427v-700h-427v700zM78 680l185 -309l186 309h-371zM251 350l-180 300v-601zM264 329l-185 -308h370zM276 350l181 -303v605z" />
    <glyph glyph-name=".notdef" horiz-adv-x="527" 
d="M50 700h427v-700h-427v700zM78 680l185 -309l186 309h-371zM251 350l-180 300v-601zM264 329l-185 -308h370zM276 350l181 -303v605z" />
    <glyph glyph-name=".null" 
 />
    <glyph glyph-name=".null" 
 />
    <glyph glyph-name="nonmarkingreturn" horiz-adv-x="333" 
 />
    <glyph glyph-name="controlLF" unicode="&#xa;" 
 />
    <glyph glyph-name="controlCR" unicode="&#xd;" 
 />
    <glyph glyph-name="space" unicode=" " horiz-adv-x="354" 
 />
    <glyph glyph-name="parenleft" unicode="(" horiz-adv-x="297" 
d="M303 -115h-137q-60 112 -90 236t-30 250q0 127 30 250.5t90 234.5h137q-52 -111 -80.5 -234.5t-28.5 -250.5q0 -126 28.5 -250t80.5 -236z" />
    <glyph glyph-name="parenright" unicode=")" horiz-adv-x="296" 
d="M-7 -115q53 112 81 236t28 250q0 127 -28 250.5t-81 234.5h137q59 -111 89.5 -234.5t30.5 -250.5q0 -126 -30.5 -250t-89.5 -236h-137z" />
    <glyph glyph-name="asterisk" unicode="*" horiz-adv-x="544" 
d="M510 489l-160 -52l98 -139l-78 -55l-99 139l-98 -139l-79 55l99 140l-160 51l30 92l160 -52v167h96v-168l162 53z" />
    <glyph glyph-name="plus" unicode="+" horiz-adv-x="610" 
d="M382 341h192v-144h-192v-197h-155v197h-192v144h192v196h155v-196z" />
    <glyph glyph-name="comma" unicode="," horiz-adv-x="248" 
d="M220 88l-124 -248l-113 23l87 256z" />
    <glyph glyph-name="hyphen" unicode="-" horiz-adv-x="556" 
d="M522 173h-489v130h489v-130z" />
    <glyph glyph-name="period" unicode="." horiz-adv-x="272" 
d="M136 183q38 -70 108 -108q-70 -39 -108 -109q-39 70 -109 109q70 38 109 108z" />
    <glyph glyph-name="slash" unicode="/" horiz-adv-x="673" 
d="M479 769h144l-423 -842h-150z" />
    <glyph glyph-name="zero" unicode="0" horiz-adv-x="663" 
d="M331 456q39 -71 109 -109q-70 -38 -109 -109q-38 71 -108 109q70 38 108 109zM584.5 540q35.5 -80 35.5 -193t-35.5 -193t-100 -123.5t-153.5 -43.5q-85 0 -150.5 43.5t-101.5 123.5t-36 193t36 193.5t101.5 123.5t150.5 43q89 0 153.5 -43.5t100 -123.5zM449 258
q9 40 9 89t-9 89t-25.5 68t-40 43.5t-52 15.5t-52 -15.5t-40.5 -43.5t-25.5 -68t-8.5 -88.5t8.5 -89t25.5 -68.5t40.5 -43.5t52 -15.5t52 15.5t40 43.5t25.5 68z" />
    <glyph glyph-name="one" unicode="1" horiz-adv-x="335" 
d="M37 657l247 50v-707h-161v536l-86 -17v138z" />
    <glyph glyph-name="two" unicode="2" horiz-adv-x="650" 
d="M330 154h278v-154h-588l309 320q28 31 48.5 56t30.5 49t10 52q0 16 -6 31.5t-17.5 28t-29.5 20t-42 7.5q-31 0 -55.5 -16t-36.5 -44q-10 -22 -12 -49l-160 39q7 42 25 79q31 61 93 98t151 37q65 0 114.5 -19.5t82.5 -51.5t50 -71t17 -78q0 -57 -28 -104t-72 -86z" />
    <glyph glyph-name="three" unicode="3" horiz-adv-x="609" 
d="M542.5 279.5q22.5 -37.5 22.5 -90.5q0 -60 -32.5 -106t-93 -72.5t-145.5 -26.5q-63 0 -112.5 19t-83.5 52.5t-53 76.5q-7 18 -12 37l153 46q0 -5 7 -23.5t13 -27.5q4 -6 9 -12q33 -41 86 -41q43 0 71 29.5t28 72.5q0 62 -80 83h-3q-25 7 -58 7h-7v108q29 0 52 7.5
t40.5 20.5t26.5 30t9 36t-9 35t-26 24.5t-43 8.5q-40 0 -66 -23q-23 -20 -25 -51l-147 50q8 27 23 52q30 49 85.5 77.5t129.5 28.5q78 0 132.5 -26t82.5 -69.5t28 -97.5q0 -59 -39 -99q-31 -32 -81 -51q29 -9 52 -22q43 -25 65.5 -62.5z" />
    <glyph glyph-name="four" unicode="4" horiz-adv-x="722" 
d="M577 266h109v-143h-109v-123h-174v145h-353l402 549h125v-428zM422 266v185l-150 -185h150z" />
    <glyph glyph-name="five" unicode="5" horiz-adv-x="598" 
d="M287 451q112 0 191.5 -68t79.5 -164t-79.5 -164t-191.5 -68q-51 0 -92 9t-71.5 26.5t-48.5 32t-42 38.5l112 96q11 -14 19.5 -22t25.5 -20t42 -18.5t55 -6.5q47 0 80.5 28.5t33.5 68.5t-33.5 68.5t-80.5 28.5q-58 0 -92 -42l-112 96v1l38 323h375v-145h-241l-25 -103
q28 5 57 5z" />
    <glyph glyph-name="six" unicode="6" horiz-adv-x="637" 
d="M350 477q106 -11 178 -81.5t72 -165.5q0 -102 -83 -175t-199.5 -73t-199 73t-82.5 175q0 70 41 129l239 332h200zM318 127q49 0 83.5 30.5t34.5 73t-34.5 73t-83.5 30.5t-83.5 -30.5t-34.5 -73t34.5 -73t83.5 -30.5z" />
    <glyph glyph-name="seven" unicode="7" horiz-adv-x="616" 
d="M134 477q-39 70 -109 108q70 39 109 109q38 -70 108 -109q-70 -38 -108 -108zM399 694h167l-335 -694h-181l270 537z" />
    <glyph glyph-name="eight" unicode="8" horiz-adv-x="603" 
d="M536.5 282q23.5 -39 23.5 -94q0 -47 -20.5 -84.5t-57.5 -64.5t-83.5 -41t-97.5 -14t-97.5 14t-83 41t-57.5 64.5t-21 84.5q0 55 24 94t62 64q20 12 43 22q-16 7 -30 17q-34 23 -54 58.5t-20 82.5q0 59 32 100t85 62.5t117 21.5t117 -21.5t85 -62.5t32 -100
q0 -47 -20 -82.5t-54 -58.5q-15 -10 -31 -17q23 -10 44 -22q39 -25 62.5 -64zM233.5 551.5q-9.5 -18.5 -9.5 -40.5q0 -24 10 -42t27.5 -28t39.5 -10t39.5 10t27.5 28t10 42q0 22 -9.5 40.5t-27 28.5t-40.5 10q-22 0 -40 -10t-27.5 -28.5zM381.5 163q12.5 21 12.5 51
q0 25 -12.5 46t-34 32.5t-46.5 11.5t-46.5 -11.5t-34 -32.5t-12.5 -46q0 -30 12.5 -51t34 -32t46.5 -11t46.5 11t34 32z" />
    <glyph glyph-name="nine" unicode="9" horiz-adv-x="637" 
d="M318.5 709q116.5 0 199.5 -73t83 -175q0 -70 -41 -129l-240 -332h-200l167 214q-106 11 -178 81.5t-72 165.5q0 102 82.5 175t199 73zM319 357q49 0 83.5 30.5t34.5 73.5t-34.5 73t-83.5 30t-83.5 -30t-34.5 -73t34.5 -73.5t83.5 -30.5z" />
    <glyph glyph-name="colon" unicode=":" horiz-adv-x="284" 
d="M142 183q38 -70 108 -108q-70 -39 -108 -109q-39 70 -109 109q70 38 109 108zM142 550q38 -70 108 -109q-70 -38 -108 -108q-39 70 -109 108q70 39 109 109z" />
    <glyph glyph-name="semicolon" unicode=";" horiz-adv-x="287" 
d="M147 551q39 -70 109 -109q-70 -38 -109 -108q-38 70 -108 108q70 39 108 109zM-12 -139l87 256l150 -31l-124 -248z" />
    <glyph glyph-name="equal" unicode="=" horiz-adv-x="589" 
d="M549 290h-510v130h510v-130zM549 86h-510v129h510v-129z" />
    <glyph glyph-name="question" unicode="?" horiz-adv-x="589" 
d="M294 759q108 0 184 -65t76 -158q0 -81 -60.5 -142.5t-152.5 -76.5v-77h-136v180q15 -2 29 -2q60 0 106 26t59 66h-1q5 13 5 26q0 39 -32 66t-77 27q-29 0 -52.5 -5.5t-40 -17.5t-25 -19.5t-18.5 -20.5l-108 92q23 23 40 36.5t47 31t69 25.5t88 8zM274 183
q38 -70 108 -108q-70 -39 -108 -109q-39 70 -109 109q70 38 109 108z" />
    <glyph glyph-name="A" unicode="A" horiz-adv-x="719" 
d="M359 218q39 -71 109 -109q-70 -38 -109 -109q-38 71 -108 109q70 38 108 109zM359 738l365 -738h-161l-204 439l-204 -439h-161z" />
    <glyph glyph-name="A" unicode="&#xe5;" horiz-adv-x="719" 
d="M359 218q39 -71 109 -109q-70 -38 -109 -109q-38 71 -108 109q70 38 108 109zM359 738l365 -738h-161l-204 439l-204 -439h-161z" />
    <glyph glyph-name="A" unicode="&#xe4;" horiz-adv-x="719" 
d="M359 218q39 -71 109 -109q-70 -38 -109 -109q-38 71 -108 109q70 38 108 109zM359 738l365 -738h-161l-204 439l-204 -439h-161z" />
    <glyph glyph-name="A" unicode="&#xe3;" horiz-adv-x="719" 
d="M359 218q39 -71 109 -109q-70 -38 -109 -109q-38 71 -108 109q70 38 108 109zM359 738l365 -738h-161l-204 439l-204 -439h-161z" />
    <glyph glyph-name="A" unicode="&#xe2;" horiz-adv-x="719" 
d="M359 218q39 -71 109 -109q-70 -38 -109 -109q-38 71 -108 109q70 38 108 109zM359 738l365 -738h-161l-204 439l-204 -439h-161z" />
    <glyph glyph-name="A" unicode="&#xe1;" horiz-adv-x="719" 
d="M359 218q39 -71 109 -109q-70 -38 -109 -109q-38 71 -108 109q70 38 108 109zM359 738l365 -738h-161l-204 439l-204 -439h-161z" />
    <glyph glyph-name="A" unicode="&#xe0;" horiz-adv-x="719" 
d="M359 218q39 -71 109 -109q-70 -38 -109 -109q-38 71 -108 109q70 38 108 109zM359 738l365 -738h-161l-204 439l-204 -439h-161z" />
    <glyph glyph-name="A" unicode="&#xc5;" horiz-adv-x="719" 
d="M359 218q39 -71 109 -109q-70 -38 -109 -109q-38 71 -108 109q70 38 108 109zM359 738l365 -738h-161l-204 439l-204 -439h-161z" />
    <glyph glyph-name="A" unicode="&#xc4;" horiz-adv-x="719" 
d="M359 218q39 -71 109 -109q-70 -38 -109 -109q-38 71 -108 109q70 38 108 109zM359 738l365 -738h-161l-204 439l-204 -439h-161z" />
    <glyph glyph-name="A" unicode="&#xc3;" horiz-adv-x="719" 
d="M359 218q39 -71 109 -109q-70 -38 -109 -109q-38 71 -108 109q70 38 108 109zM359 738l365 -738h-161l-204 439l-204 -439h-161z" />
    <glyph glyph-name="A" unicode="&#xc2;" horiz-adv-x="719" 
d="M359 218q39 -71 109 -109q-70 -38 -109 -109q-38 71 -108 109q70 38 108 109zM359 738l365 -738h-161l-204 439l-204 -439h-161z" />
    <glyph glyph-name="A" unicode="&#xc1;" horiz-adv-x="719" 
d="M359 218q39 -71 109 -109q-70 -38 -109 -109q-38 71 -108 109q70 38 108 109zM359 738l365 -738h-161l-204 439l-204 -439h-161z" />
    <glyph glyph-name="A" unicode="&#xc0;" horiz-adv-x="719" 
d="M359 218q39 -71 109 -109q-70 -38 -109 -109q-38 71 -108 109q70 38 108 109zM359 738l365 -738h-161l-204 439l-204 -439h-161z" />
    <glyph glyph-name="A" unicode="a" horiz-adv-x="719" 
d="M359 218q39 -71 109 -109q-70 -38 -109 -109q-38 71 -108 109q70 38 108 109zM359 738l365 -738h-161l-204 439l-204 -439h-161z" />
    <glyph glyph-name="B" unicode="B" horiz-adv-x="610" 
d="M562.5 284.5q23.5 -37.5 23.5 -89.5q0 -70 -33 -112.5t-93.5 -62.5t-137.5 -20h-272v693h255q72 0 127 -19.5t87 -58.5t32 -98q0 -55 -32 -93q-26 -32 -69 -52q19 -6 51 -26q38 -24 61.5 -61.5zM217 563v-145h70q29 0 49 8.5t31 25t11 40.5q0 36 -24.5 53.5t-66.5 17.5
h-70zM397.5 165.5q15.5 19.5 15.5 52.5q0 22 -9 38t-25 26t-36.5 14.5t-39.5 4.5h-86v-172h86q27 0 53 8.5t41.5 28z" />
    <glyph glyph-name="B" unicode="b" horiz-adv-x="610" 
d="M562.5 284.5q23.5 -37.5 23.5 -89.5q0 -70 -33 -112.5t-93.5 -62.5t-137.5 -20h-272v693h255q72 0 127 -19.5t87 -58.5t32 -98q0 -55 -32 -93q-26 -32 -69 -52q19 -6 51 -26q38 -24 61.5 -61.5zM217 563v-145h70q29 0 49 8.5t31 25t11 40.5q0 36 -24.5 53.5t-66.5 17.5
h-70zM397.5 165.5q15.5 19.5 15.5 52.5q0 22 -9 38t-25 26t-36.5 14.5t-39.5 4.5h-86v-172h86q27 0 53 8.5t41.5 28z" />
    <glyph glyph-name="C" unicode="C" horiz-adv-x="741" 
d="M637 451q38 -70 108 -109q-70 -38 -108 -108q-39 70 -109 108q70 39 109 109zM383 149q66 0 120 41l116 -117q-102 -88 -236 -88q-99 0 -182.5 48.5t-132 132t-48.5 182t48.5 182t132 132t182.5 48.5q134 0 236 -88l-116 -117q-54 40 -120 40q-82 0 -140.5 -58
t-58.5 -140t58.5 -140t140.5 -58z" />
    <glyph glyph-name="C" unicode="&#xe7;" horiz-adv-x="741" 
d="M637 451q38 -70 108 -109q-70 -38 -108 -108q-39 70 -109 108q70 39 109 109zM383 149q66 0 120 41l116 -117q-102 -88 -236 -88q-99 0 -182.5 48.5t-132 132t-48.5 182t48.5 182t132 132t182.5 48.5q134 0 236 -88l-116 -117q-54 40 -120 40q-82 0 -140.5 -58
t-58.5 -140t58.5 -140t140.5 -58z" />
    <glyph glyph-name="C" unicode="&#xc7;" horiz-adv-x="741" 
d="M637 451q38 -70 108 -109q-70 -38 -108 -108q-39 70 -109 108q70 39 109 109zM383 149q66 0 120 41l116 -117q-102 -88 -236 -88q-99 0 -182.5 48.5t-132 132t-48.5 182t48.5 182t132 132t182.5 48.5q134 0 236 -88l-116 -117q-54 40 -120 40q-82 0 -140.5 -58
t-58.5 -140t58.5 -140t140.5 -58z" />
    <glyph glyph-name="C" unicode="c" horiz-adv-x="741" 
d="M637 451q38 -70 108 -109q-70 -38 -108 -108q-39 70 -109 108q70 39 109 109zM383 149q66 0 120 41l116 -117q-102 -88 -236 -88q-99 0 -182.5 48.5t-132 132t-48.5 182t48.5 182t132 132t182.5 48.5q134 0 236 -88l-116 -117q-54 40 -120 40q-82 0 -140.5 -58
t-58.5 -140t58.5 -140t140.5 -58z" />
    <glyph glyph-name="D" unicode="D" horiz-adv-x="692" 
d="M623.5 531.5q45.5 -77.5 45.5 -184.5q0 -106 -45.5 -183.5t-128.5 -120.5t-197 -43h-248v694h248q114 0 197 -42.5t128.5 -120zM479 252.5q17 38.5 17 95t-17 94.5t-45 61t-65.5 32.5t-76.5 9.5h-70v-396h70q39 0 76.5 10t65.5 32.5t45 61z" />
    <glyph glyph-name="D" unicode="d" horiz-adv-x="692" 
d="M623.5 531.5q45.5 -77.5 45.5 -184.5q0 -106 -45.5 -183.5t-128.5 -120.5t-197 -43h-248v694h248q114 0 197 -42.5t128.5 -120zM479 252.5q17 38.5 17 95t-17 94.5t-45 61t-65.5 32.5t-76.5 9.5h-70v-396h70q39 0 76.5 10t65.5 32.5t45 61z" />
    <glyph glyph-name="E" unicode="E" horiz-adv-x="540" 
d="M496 347q-70 -38 -109 -108q-38 70 -108 108q70 39 108 109q39 -70 109 -109zM511 694v-138h-300v-418h300v-138h-461v694h461z" />
    <glyph glyph-name="E" unicode="&#xeb;" horiz-adv-x="540" 
d="M496 347q-70 -38 -109 -108q-38 70 -108 108q70 39 108 109q39 -70 109 -109zM511 694v-138h-300v-418h300v-138h-461v694h461z" />
    <glyph glyph-name="E" unicode="&#xea;" horiz-adv-x="540" 
d="M496 347q-70 -38 -109 -108q-38 70 -108 108q70 39 108 109q39 -70 109 -109zM511 694v-138h-300v-418h300v-138h-461v694h461z" />
    <glyph glyph-name="E" unicode="&#xe9;" horiz-adv-x="540" 
d="M496 347q-70 -38 -109 -108q-38 70 -108 108q70 39 108 109q39 -70 109 -109zM511 694v-138h-300v-418h300v-138h-461v694h461z" />
    <glyph glyph-name="E" unicode="&#xe8;" horiz-adv-x="540" 
d="M496 347q-70 -38 -109 -108q-38 70 -108 108q70 39 108 109q39 -70 109 -109zM511 694v-138h-300v-418h300v-138h-461v694h461z" />
    <glyph glyph-name="E" unicode="&#xcb;" horiz-adv-x="540" 
d="M496 347q-70 -38 -109 -108q-38 70 -108 108q70 39 108 109q39 -70 109 -109zM511 694v-138h-300v-418h300v-138h-461v694h461z" />
    <glyph glyph-name="E" unicode="&#xca;" horiz-adv-x="540" 
d="M496 347q-70 -38 -109 -108q-38 70 -108 108q70 39 108 109q39 -70 109 -109zM511 694v-138h-300v-418h300v-138h-461v694h461z" />
    <glyph glyph-name="E" unicode="&#xc9;" horiz-adv-x="540" 
d="M496 347q-70 -38 -109 -108q-38 70 -108 108q70 39 108 109q39 -70 109 -109zM511 694v-138h-300v-418h300v-138h-461v694h461z" />
    <glyph glyph-name="E" unicode="&#xc8;" horiz-adv-x="540" 
d="M496 347q-70 -38 -109 -108q-38 70 -108 108q70 39 108 109q39 -70 109 -109zM511 694v-138h-300v-418h300v-138h-461v694h461z" />
    <glyph glyph-name="E" unicode="e" horiz-adv-x="540" 
d="M496 347q-70 -38 -109 -108q-38 70 -108 108q70 39 108 109q39 -70 109 -109zM511 694v-138h-300v-418h300v-138h-461v694h461z" />
    <glyph glyph-name="F" unicode="F" horiz-adv-x="518" 
d="M381 456q38 -70 109 -109q-71 -38 -109 -108q-38 70 -109 108q71 39 109 109zM50 694h456v-144h-295v-550h-161v694z" />
    <glyph glyph-name="F" unicode="f" horiz-adv-x="518" 
d="M381 456q38 -70 109 -109q-71 -38 -109 -108q-38 70 -109 108q71 39 109 109zM50 694h456v-144h-295v-550h-161v694z" />
    <glyph glyph-name="G" unicode="G" horiz-adv-x="754" 
d="M495 385h246v-47q0 -96 -46 -177.5t-126 -130.5t-175 -51h-8q-100 0 -184.5 49t-133.5 134t-48 185q1 99 51 183t135 132.5t184 47.5q129 -1 229 -84l-118 -118q-52 36 -115 36q-84 0 -143 -60t-57 -145q2 -81 61 -138t140 -56q59 0 107 31t72 82h-199z" />
    <glyph glyph-name="G" unicode="g" horiz-adv-x="754" 
d="M495 385h246v-47q0 -96 -46 -177.5t-126 -130.5t-175 -51h-8q-100 0 -184.5 49t-133.5 134t-48 185q1 99 51 183t135 132.5t184 47.5q129 -1 229 -84l-118 -118q-52 36 -115 36q-84 0 -143 -60t-57 -145q2 -81 61 -138t140 -56q59 0 107 31t72 82h-199z" />
    <glyph glyph-name="H" unicode="H" horiz-adv-x="719" 
d="M359 456q39 -70 109 -109q-70 -38 -109 -108q-38 70 -108 108q70 39 108 109zM217 0h-167v694h167v-694zM668 0h-167v694h167v-694z" />
    <glyph glyph-name="H" unicode="h" horiz-adv-x="719" 
d="M359 456q39 -70 109 -109q-70 -38 -109 -108q-38 70 -108 108q70 39 108 109zM217 0h-167v694h167v-694zM668 0h-167v694h167v-694z" />
    <glyph glyph-name="I" unicode="I" horiz-adv-x="271" 
d="M220 0h-170v694h170v-694z" />
    <glyph glyph-name="I" unicode="&#xef;" horiz-adv-x="271" 
d="M220 0h-170v694h170v-694z" />
    <glyph glyph-name="I" unicode="&#xee;" horiz-adv-x="271" 
d="M220 0h-170v694h170v-694z" />
    <glyph glyph-name="I" unicode="&#xed;" horiz-adv-x="271" 
d="M220 0h-170v694h170v-694z" />
    <glyph glyph-name="I" unicode="&#xec;" horiz-adv-x="271" 
d="M220 0h-170v694h170v-694z" />
    <glyph glyph-name="I" unicode="&#xcf;" horiz-adv-x="271" 
d="M220 0h-170v694h170v-694z" />
    <glyph glyph-name="I" unicode="&#xce;" horiz-adv-x="271" 
d="M220 0h-170v694h170v-694z" />
    <glyph glyph-name="I" unicode="&#xcd;" horiz-adv-x="271" 
d="M220 0h-170v694h170v-694z" />
    <glyph glyph-name="I" unicode="&#xcc;" horiz-adv-x="271" 
d="M220 0h-170v694h170v-694z" />
    <glyph glyph-name="I" unicode="i" horiz-adv-x="271" 
d="M220 0h-170v694h170v-694z" />
    <glyph glyph-name="J" unicode="J" horiz-adv-x="376" 
d="M152 694h181v-471q0 -13 -2.5 -30t-17 -53.5t-40.5 -66.5q-48 -58 -127 -89q-56 -23 -145 -23v165q87 0 117 29q34 34 34 88v451z" />
    <glyph glyph-name="J" unicode="j" horiz-adv-x="376" 
d="M152 694h181v-471q0 -13 -2.5 -30t-17 -53.5t-40.5 -66.5q-48 -58 -127 -89q-56 -23 -145 -23v165q87 0 117 29q34 34 34 88v451z" />
    <glyph glyph-name="K" unicode="K" horiz-adv-x="667" 
d="M374 369l296 -369h-203l-244 304v-304h-173v694h173v-274l236 274h196z" />
    <glyph glyph-name="K" unicode="k" horiz-adv-x="667" 
d="M374 369l296 -369h-203l-244 304v-304h-173v694h173v-274l236 274h196z" />
    <glyph glyph-name="L" unicode="L" horiz-adv-x="499" 
d="M217 144h279v-144h-446v694h167v-550z" />
    <glyph glyph-name="L" unicode="l" horiz-adv-x="499" 
d="M217 144h279v-144h-446v694h167v-550z" />
    <glyph glyph-name="M" unicode="M" horiz-adv-x="866" 
d="M433 332l383 397v-729h-176l-1 329l-206 -205l-206 205l-1 -329h-176v729zM433 512q-38 70 -109 108q71 39 109 109q38 -70 109 -109q-71 -38 -109 -108z" />
    <glyph glyph-name="M" unicode="m" horiz-adv-x="866" 
d="M433 332l383 397v-729h-176l-1 329l-206 -205l-206 205l-1 -329h-176v729zM433 512q-38 70 -109 108q71 39 109 109q38 -70 109 -109q-71 -38 -109 -108z" />
    <glyph glyph-name="N" unicode="N" horiz-adv-x="741" 
d="M529 694h161v-728l-479 425v-391h-161v729l479 -425v390z" />
    <glyph glyph-name="N" unicode="&#xf1;" horiz-adv-x="741" 
d="M529 694h161v-728l-479 425v-391h-161v729l479 -425v390z" />
    <glyph glyph-name="N" unicode="&#xd1;" horiz-adv-x="741" 
d="M529 694h161v-728l-479 425v-391h-161v729l479 -425v390z" />
    <glyph glyph-name="N" unicode="n" horiz-adv-x="741" 
d="M529 694h161v-728l-479 425v-391h-161v729l479 -425v390z" />
    <glyph glyph-name="O" unicode="O" horiz-adv-x="774" 
d="M386.5 710q99.5 0 183.5 -49t133 -133t49 -183.5t-49 -183.5t-133 -133t-183.5 -49t-183.5 49t-133 133t-49 183.5t49 183.5t133 133t183.5 49zM386.5 145q82.5 0 141 58.5t58.5 141t-58.5 141t-141 58.5t-141 -58.5t-58.5 -141t58.5 -141t141 -58.5zM387 453
q38 -70 108 -109q-70 -38 -108 -108q-39 70 -109 108q70 39 109 109z" />
    <glyph glyph-name="O" unicode="&#xf8;" horiz-adv-x="774" 
d="M386.5 710q99.5 0 183.5 -49t133 -133t49 -183.5t-49 -183.5t-133 -133t-183.5 -49t-183.5 49t-133 133t-49 183.5t49 183.5t133 133t183.5 49zM386.5 145q82.5 0 141 58.5t58.5 141t-58.5 141t-141 58.5t-141 -58.5t-58.5 -141t58.5 -141t141 -58.5zM387 453
q38 -70 108 -109q-70 -38 -108 -108q-39 70 -109 108q70 39 109 109z" />
    <glyph glyph-name="O" unicode="&#xf6;" horiz-adv-x="774" 
d="M386.5 710q99.5 0 183.5 -49t133 -133t49 -183.5t-49 -183.5t-133 -133t-183.5 -49t-183.5 49t-133 133t-49 183.5t49 183.5t133 133t183.5 49zM386.5 145q82.5 0 141 58.5t58.5 141t-58.5 141t-141 58.5t-141 -58.5t-58.5 -141t58.5 -141t141 -58.5zM387 453
q38 -70 108 -109q-70 -38 -108 -108q-39 70 -109 108q70 39 109 109z" />
    <glyph glyph-name="O" unicode="&#xf5;" horiz-adv-x="774" 
d="M386.5 710q99.5 0 183.5 -49t133 -133t49 -183.5t-49 -183.5t-133 -133t-183.5 -49t-183.5 49t-133 133t-49 183.5t49 183.5t133 133t183.5 49zM386.5 145q82.5 0 141 58.5t58.5 141t-58.5 141t-141 58.5t-141 -58.5t-58.5 -141t58.5 -141t141 -58.5zM387 453
q38 -70 108 -109q-70 -38 -108 -108q-39 70 -109 108q70 39 109 109z" />
    <glyph glyph-name="O" unicode="&#xf4;" horiz-adv-x="774" 
d="M386.5 710q99.5 0 183.5 -49t133 -133t49 -183.5t-49 -183.5t-133 -133t-183.5 -49t-183.5 49t-133 133t-49 183.5t49 183.5t133 133t183.5 49zM386.5 145q82.5 0 141 58.5t58.5 141t-58.5 141t-141 58.5t-141 -58.5t-58.5 -141t58.5 -141t141 -58.5zM387 453
q38 -70 108 -109q-70 -38 -108 -108q-39 70 -109 108q70 39 109 109z" />
    <glyph glyph-name="O" unicode="&#xf3;" horiz-adv-x="774" 
d="M386.5 710q99.5 0 183.5 -49t133 -133t49 -183.5t-49 -183.5t-133 -133t-183.5 -49t-183.5 49t-133 133t-49 183.5t49 183.5t133 133t183.5 49zM386.5 145q82.5 0 141 58.5t58.5 141t-58.5 141t-141 58.5t-141 -58.5t-58.5 -141t58.5 -141t141 -58.5zM387 453
q38 -70 108 -109q-70 -38 -108 -108q-39 70 -109 108q70 39 109 109z" />
    <glyph glyph-name="O" unicode="&#xf2;" horiz-adv-x="774" 
d="M386.5 710q99.5 0 183.5 -49t133 -133t49 -183.5t-49 -183.5t-133 -133t-183.5 -49t-183.5 49t-133 133t-49 183.5t49 183.5t133 133t183.5 49zM386.5 145q82.5 0 141 58.5t58.5 141t-58.5 141t-141 58.5t-141 -58.5t-58.5 -141t58.5 -141t141 -58.5zM387 453
q38 -70 108 -109q-70 -38 -108 -108q-39 70 -109 108q70 39 109 109z" />
    <glyph glyph-name="O" unicode="&#xd8;" horiz-adv-x="774" 
d="M386.5 710q99.5 0 183.5 -49t133 -133t49 -183.5t-49 -183.5t-133 -133t-183.5 -49t-183.5 49t-133 133t-49 183.5t49 183.5t133 133t183.5 49zM386.5 145q82.5 0 141 58.5t58.5 141t-58.5 141t-141 58.5t-141 -58.5t-58.5 -141t58.5 -141t141 -58.5zM387 453
q38 -70 108 -109q-70 -38 -108 -108q-39 70 -109 108q70 39 109 109z" />
    <glyph glyph-name="O" unicode="&#xd6;" horiz-adv-x="774" 
d="M386.5 710q99.5 0 183.5 -49t133 -133t49 -183.5t-49 -183.5t-133 -133t-183.5 -49t-183.5 49t-133 133t-49 183.5t49 183.5t133 133t183.5 49zM386.5 145q82.5 0 141 58.5t58.5 141t-58.5 141t-141 58.5t-141 -58.5t-58.5 -141t58.5 -141t141 -58.5zM387 453
q38 -70 108 -109q-70 -38 -108 -108q-39 70 -109 108q70 39 109 109z" />
    <glyph glyph-name="O" unicode="&#xd5;" horiz-adv-x="774" 
d="M386.5 710q99.5 0 183.5 -49t133 -133t49 -183.5t-49 -183.5t-133 -133t-183.5 -49t-183.5 49t-133 133t-49 183.5t49 183.5t133 133t183.5 49zM386.5 145q82.5 0 141 58.5t58.5 141t-58.5 141t-141 58.5t-141 -58.5t-58.5 -141t58.5 -141t141 -58.5zM387 453
q38 -70 108 -109q-70 -38 -108 -108q-39 70 -109 108q70 39 109 109z" />
    <glyph glyph-name="O" unicode="&#xd4;" horiz-adv-x="774" 
d="M386.5 710q99.5 0 183.5 -49t133 -133t49 -183.5t-49 -183.5t-133 -133t-183.5 -49t-183.5 49t-133 133t-49 183.5t49 183.5t133 133t183.5 49zM386.5 145q82.5 0 141 58.5t58.5 141t-58.5 141t-141 58.5t-141 -58.5t-58.5 -141t58.5 -141t141 -58.5zM387 453
q38 -70 108 -109q-70 -38 -108 -108q-39 70 -109 108q70 39 109 109z" />
    <glyph glyph-name="O" unicode="&#xd3;" horiz-adv-x="774" 
d="M386.5 710q99.5 0 183.5 -49t133 -133t49 -183.5t-49 -183.5t-133 -133t-183.5 -49t-183.5 49t-133 133t-49 183.5t49 183.5t133 133t183.5 49zM386.5 145q82.5 0 141 58.5t58.5 141t-58.5 141t-141 58.5t-141 -58.5t-58.5 -141t58.5 -141t141 -58.5zM387 453
q38 -70 108 -109q-70 -38 -108 -108q-39 70 -109 108q70 39 109 109z" />
    <glyph glyph-name="O" unicode="&#xd2;" horiz-adv-x="774" 
d="M386.5 710q99.5 0 183.5 -49t133 -133t49 -183.5t-49 -183.5t-133 -133t-183.5 -49t-183.5 49t-133 133t-49 183.5t49 183.5t133 133t183.5 49zM386.5 145q82.5 0 141 58.5t58.5 141t-58.5 141t-141 58.5t-141 -58.5t-58.5 -141t58.5 -141t141 -58.5zM387 453
q38 -70 108 -109q-70 -38 -108 -108q-39 70 -109 108q70 39 109 109z" />
    <glyph glyph-name="O" unicode="o" horiz-adv-x="774" 
d="M386.5 710q99.5 0 183.5 -49t133 -133t49 -183.5t-49 -183.5t-133 -133t-183.5 -49t-183.5 49t-133 133t-49 183.5t49 183.5t133 133t183.5 49zM386.5 145q82.5 0 141 58.5t58.5 141t-58.5 141t-141 58.5t-141 -58.5t-58.5 -141t58.5 -141t141 -58.5zM387 453
q38 -70 108 -109q-70 -38 -108 -108q-39 70 -109 108q70 39 109 109z" />
    <glyph glyph-name="P" unicode="P" horiz-adv-x="575" 
d="M529.5 589.5q30.5 -50.5 30.5 -122.5q0 -69 -30.5 -120t-90.5 -78.5t-148 -27.5h-74v-241h-167v694h241q88 0 148 -27t90.5 -77.5zM370 402q29 23 29 65q0 44 -29 66.5t-79 22.5h-74v-177h74q50 0 79 23z" />
    <glyph glyph-name="P" unicode="p" horiz-adv-x="575" 
d="M529.5 589.5q30.5 -50.5 30.5 -122.5q0 -69 -30.5 -120t-90.5 -78.5t-148 -27.5h-74v-241h-167v694h241q88 0 148 -27t90.5 -77.5zM370 402q29 23 29 65q0 44 -29 66.5t-79 22.5h-74v-177h74q50 0 79 23z" />
    <glyph glyph-name="Q" unicode="Q" horiz-adv-x="823" 
d="M666 109h146v-130h-425q-100 0 -184 49t-133 133t-49 183.5t49 183.5t133 133t183.5 49t183.5 -49t133 -133t49 -184q0 -133 -86 -235zM386.5 145q82.5 0 141 58.5t58.5 141t-58.5 141t-141 58.5t-141 -58.5t-58.5 -141t58.5 -141t141 -58.5zM387 453q38 -70 108 -109
q-70 -38 -108 -108q-39 70 -109 108q70 39 109 109z" />
    <glyph glyph-name="Q" unicode="q" horiz-adv-x="823" 
d="M666 109h146v-130h-425q-100 0 -184 49t-133 133t-49 183.5t49 183.5t133 133t183.5 49t183.5 -49t133 -133t49 -184q0 -133 -86 -235zM386.5 145q82.5 0 141 58.5t58.5 141t-58.5 141t-141 58.5t-141 -58.5t-58.5 -141t58.5 -141t141 -58.5zM387 453q38 -70 108 -109
q-70 -38 -108 -108q-39 70 -109 108q70 39 109 109z" />
    <glyph glyph-name="R" unicode="R" horiz-adv-x="623" 
d="M217 241v-241h-167v694h253q89 0 148.5 -29t90 -80t30.5 -118t-30.5 -118t-90.5 -79q-8 -5 -18 -8l181 -262h-196l-150 241h-51zM291 552h-74v-181h74q33 0 57.5 10t37.5 30.5t13 49t-13 49t-37.5 31.5t-57.5 11z" />
    <glyph glyph-name="R" unicode="r" horiz-adv-x="623" 
d="M217 241v-241h-167v694h253q89 0 148.5 -29t90 -80t30.5 -118t-30.5 -118t-90.5 -79q-8 -5 -18 -8l181 -262h-196l-150 241h-51zM291 552h-74v-181h74q33 0 57.5 10t37.5 30.5t13 49t-13 49t-37.5 31.5t-57.5 11z" />
    <glyph glyph-name="S" unicode="S" horiz-adv-x="581" 
d="M544 275q14 -34 14 -77q0 -53 -21.5 -94t-57.5 -69t-82 -42t-95 -14q-67 0 -125 24t-101 66q-40 40 -64 87l115 88q21 -38 47 -65.5t57.5 -42.5t65.5 -15q37 0 61 18.5t24 50.5q0 27 -14 43t-45 31t-81 34q-25 9 -57 24.5t-61 41t-47.5 61.5t-18.5 88q0 61 32 105.5
t87 68t122 23.5q70 0 121 -23t84 -57q25 -25 41 -51l-118 -90q-14 24 -33 42t-42.5 28.5t-50.5 10.5q-35 0 -54 -15t-19 -38q0 -24 18.5 -42t52.5 -32.5t83 -31.5q36 -14 68 -32.5t56 -44t38 -59.5z" />
    <glyph glyph-name="S" unicode="s" horiz-adv-x="581" 
d="M544 275q14 -34 14 -77q0 -53 -21.5 -94t-57.5 -69t-82 -42t-95 -14q-67 0 -125 24t-101 66q-40 40 -64 87l115 88q21 -38 47 -65.5t57.5 -42.5t65.5 -15q37 0 61 18.5t24 50.5q0 27 -14 43t-45 31t-81 34q-25 9 -57 24.5t-61 41t-47.5 61.5t-18.5 88q0 61 32 105.5
t87 68t122 23.5q70 0 121 -23t84 -57q25 -25 41 -51l-118 -90q-14 24 -33 42t-42.5 28.5t-50.5 10.5q-35 0 -54 -15t-19 -38q0 -24 18.5 -42t52.5 -32.5t83 -31.5q36 -14 68 -32.5t56 -44t38 -59.5z" />
    <glyph glyph-name="T" unicode="T" horiz-adv-x="555" 
d="M3 694h549v-150h-191v-544h-168v544h-190v150z" />
    <glyph glyph-name="T" unicode="t" horiz-adv-x="555" 
d="M3 694h549v-150h-191v-544h-168v544h-190v150z" />
    <glyph glyph-name="U" unicode="U" horiz-adv-x="646" 
d="M434 694h168v-466q0 -65 -21.5 -113.5t-59.5 -80t-89 -47t-109.5 -15.5t-109 15.5t-88.5 47t-59.5 80t-21.5 113.5v466h167v-454q0 -52 28 -85t83 -33q57 0 84.5 33t27.5 85v454z" />
    <glyph glyph-name="U" unicode="&#xfc;" horiz-adv-x="646" 
d="M434 694h168v-466q0 -65 -21.5 -113.5t-59.5 -80t-89 -47t-109.5 -15.5t-109 15.5t-88.5 47t-59.5 80t-21.5 113.5v466h167v-454q0 -52 28 -85t83 -33q57 0 84.5 33t27.5 85v454z" />
    <glyph glyph-name="U" unicode="&#xfb;" horiz-adv-x="646" 
d="M434 694h168v-466q0 -65 -21.5 -113.5t-59.5 -80t-89 -47t-109.5 -15.5t-109 15.5t-88.5 47t-59.5 80t-21.5 113.5v466h167v-454q0 -52 28 -85t83 -33q57 0 84.5 33t27.5 85v454z" />
    <glyph glyph-name="U" unicode="&#xfa;" horiz-adv-x="646" 
d="M434 694h168v-466q0 -65 -21.5 -113.5t-59.5 -80t-89 -47t-109.5 -15.5t-109 15.5t-88.5 47t-59.5 80t-21.5 113.5v466h167v-454q0 -52 28 -85t83 -33q57 0 84.5 33t27.5 85v454z" />
    <glyph glyph-name="U" unicode="&#xf9;" horiz-adv-x="646" 
d="M434 694h168v-466q0 -65 -21.5 -113.5t-59.5 -80t-89 -47t-109.5 -15.5t-109 15.5t-88.5 47t-59.5 80t-21.5 113.5v466h167v-454q0 -52 28 -85t83 -33q57 0 84.5 33t27.5 85v454z" />
    <glyph glyph-name="U" unicode="&#xdc;" horiz-adv-x="646" 
d="M434 694h168v-466q0 -65 -21.5 -113.5t-59.5 -80t-89 -47t-109.5 -15.5t-109 15.5t-88.5 47t-59.5 80t-21.5 113.5v466h167v-454q0 -52 28 -85t83 -33q57 0 84.5 33t27.5 85v454z" />
    <glyph glyph-name="U" unicode="&#xdb;" horiz-adv-x="646" 
d="M434 694h168v-466q0 -65 -21.5 -113.5t-59.5 -80t-89 -47t-109.5 -15.5t-109 15.5t-88.5 47t-59.5 80t-21.5 113.5v466h167v-454q0 -52 28 -85t83 -33q57 0 84.5 33t27.5 85v454z" />
    <glyph glyph-name="U" unicode="&#xda;" horiz-adv-x="646" 
d="M434 694h168v-466q0 -65 -21.5 -113.5t-59.5 -80t-89 -47t-109.5 -15.5t-109 15.5t-88.5 47t-59.5 80t-21.5 113.5v466h167v-454q0 -52 28 -85t83 -33q57 0 84.5 33t27.5 85v454z" />
    <glyph glyph-name="U" unicode="&#xd9;" horiz-adv-x="646" 
d="M434 694h168v-466q0 -65 -21.5 -113.5t-59.5 -80t-89 -47t-109.5 -15.5t-109 15.5t-88.5 47t-59.5 80t-21.5 113.5v466h167v-454q0 -52 28 -85t83 -33q57 0 84.5 33t27.5 85v454z" />
    <glyph glyph-name="U" unicode="u" horiz-adv-x="646" 
d="M434 694h168v-466q0 -65 -21.5 -113.5t-59.5 -80t-89 -47t-109.5 -15.5t-109 15.5t-88.5 47t-59.5 80t-21.5 113.5v466h167v-454q0 -52 28 -85t83 -33q57 0 84.5 33t27.5 85v454z" />
    <glyph glyph-name="V" unicode="V" horiz-adv-x="719" 
d="M536 694h188l-365 -737l-365 737h188l177 -407z" />
    <glyph glyph-name="V" unicode="v" horiz-adv-x="719" 
d="M536 694h188l-365 -737l-365 737h188l177 -407z" />
    <glyph glyph-name="W" unicode="W" horiz-adv-x="1038" 
d="M854 694h188l-340 -737l-184 357l-183 -357l-340 737h188l152 -407l183 365l184 -365z" />
    <glyph glyph-name="W" unicode="w" horiz-adv-x="1038" 
d="M854 694h188l-340 -737l-184 357l-183 -357l-340 737h188l152 -407l183 365l184 -365z" />
    <glyph glyph-name="X" unicode="X" horiz-adv-x="669" 
d="M437 356l233 -356h-207l-127 231l-131 -231h-207l238 356l-213 338h207l107 -201l111 201h207z" />
    <glyph glyph-name="X" unicode="x" horiz-adv-x="669" 
d="M437 356l233 -356h-207l-127 231l-131 -231h-207l238 356l-213 338h207l107 -201l111 201h207z" />
    <glyph glyph-name="Y" unicode="Y" horiz-adv-x="642" 
d="M457 694h192l-243 -411v-283h-170v282l-243 412h192l136 -260z" />
    <glyph glyph-name="Y" unicode="&#x178;" horiz-adv-x="642" 
d="M457 694h192l-243 -411v-283h-170v282l-243 412h192l136 -260z" />
    <glyph glyph-name="Y" unicode="&#xff;" horiz-adv-x="642" 
d="M457 694h192l-243 -411v-283h-170v282l-243 412h192l136 -260z" />
    <glyph glyph-name="Y" unicode="&#xfd;" horiz-adv-x="642" 
d="M457 694h192l-243 -411v-283h-170v282l-243 412h192l136 -260z" />
    <glyph glyph-name="Y" unicode="&#xdd;" horiz-adv-x="642" 
d="M457 694h192l-243 -411v-283h-170v282l-243 412h192l136 -260z" />
    <glyph glyph-name="Y" unicode="y" horiz-adv-x="642" 
d="M457 694h192l-243 -411v-283h-170v282l-243 412h192l136 -260z" />
    <glyph glyph-name="Z" unicode="Z" horiz-adv-x="596" 
d="M591 694l-328 -550h292v-144h-556l412 694h180zM156 477q-38 70 -108 109q70 38 108 108q39 -70 109 -108q-70 -39 -109 -109z" />
    <glyph glyph-name="Z" unicode="z" horiz-adv-x="596" 
d="M591 694l-328 -550h292v-144h-556l412 694h180zM156 477q-38 70 -108 109q70 38 108 108q39 -70 109 -108q-70 -39 -109 -109z" />
    <glyph glyph-name="nonbreakingspace" unicode="&#xa0;" horiz-adv-x="354" 
 />
    <glyph glyph-name="softhyphen" unicode="&#xad;" 
 />
    </font>
</defs>
</svg>
